<svg width="244" height="245" xmlns="http://www.w3.org/2000/svg" xmlns:xlink="http://www.w3.org/1999/xlink" xml:space="preserve" overflow="hidden"><g transform="translate(-2736 -1297)"><path d="M2746.5 1373.61C2746.5 1359.74 2757.74 1348.5 2771.61 1348.5L2874.39 1348.5C2888.26 1348.5 2899.5 1359.74 2899.5 1373.61L2899.5 1506.39C2899.5 1520.26 2888.26 1531.5 2874.39 1531.5L2771.61 1531.5C2757.74 1531.5 2746.5 1520.26 2746.5 1506.39Z" stroke="#767171" stroke-width="20.625" stroke-miterlimit="8" fill="#FFFFFF" fill-rule="evenodd"/><path d="M2816.5 1332.61C2816.5 1318.74 2827.74 1307.5 2841.61 1307.5L2944.38 1307.5C2958.26 1307.5 2969.5 1318.74 2969.5 1332.61L2969.5 1465.39C2969.5 1479.26 2958.26 1490.5 2944.38 1490.5L2841.61 1490.5C2827.74 1490.5 2816.5 1479.26 2816.5 1465.39Z" stroke="#767171" stroke-width="20.625" stroke-miterlimit="8" fill="#FFFFFF" fill-rule="evenodd"/></g></svg>