<svg width="244" height="245" xmlns="http://www.w3.org/2000/svg" xmlns:xlink="http://www.w3.org/1999/xlink" xml:space="preserve" overflow="hidden"><g transform="translate(-3099 -1294)"><path d="M3109.5 1370.61C3109.5 1356.74 3120.74 1345.5 3134.61 1345.5L3237.39 1345.5C3251.26 1345.5 3262.5 1356.74 3262.5 1370.61L3262.5 1503.39C3262.5 1517.26 3251.26 1528.5 3237.39 1528.5L3134.61 1528.5C3120.74 1528.5 3109.5 1517.26 3109.5 1503.39Z" stroke="#000000" stroke-width="20.625" stroke-miterlimit="8" fill="#005426" fill-rule="evenodd"/><path d="M3179.5 1329.61C3179.5 1315.74 3190.74 1304.5 3204.61 1304.5L3307.38 1304.5C3321.26 1304.5 3332.5 1315.74 3332.5 1329.61L3332.5 1462.39C3332.5 1476.26 3321.26 1487.5 3307.38 1487.5L3204.61 1487.5C3190.74 1487.5 3179.5 1476.26 3179.5 1462.39Z" stroke="#000000" stroke-width="20.625" stroke-miterlimit="8" fill="#005426" fill-rule="evenodd"/></g></svg>