<svg width="245" height="206" xmlns="http://www.w3.org/2000/svg" xmlns:xlink="http://www.w3.org/1999/xlink" xml:space="preserve" overflow="hidden"><g transform="translate(-2621 -509)"><path d="M2816.5 541.5 2816.5 541.5 2816.5 541.5C2820.92 541.5 2824.5 544.892 2824.5 549.076 2824.5 561.383 2824.5 573.691 2824.5 585.998L2824.28 586.5 2808.5 570.421 2808.5 549.077 2808.5 549.076C2808.5 544.892 2812.08 541.5 2816.5 541.5Z" stroke="hsl(34, 91%, 95%)" stroke-width="10.625" stroke-miterlimit="8" fill="none" fill-rule="evenodd"/><path d="M169 71.5121 78.1589 163 0 66.9711 23.1273 95.3495 23.1273 0 144.023 0C144.023 31.7871 142.415 98.353 142.415 98.353" stroke="hsl(34, 91%, 95%)" stroke-width="10.625" stroke-miterlimit="8" fill="none" fill-rule="evenodd" transform="matrix(1 0 0 -1 2682.5 704.5)"/><path d="M2673.5 624.5C2678.03 620.578 2681.55 616.324 2695.95 598.825 2710.35 581.326 2759.86 521.53 2759.9 519.505 2759.91 518.807 2833.48 595.898 2833.48 595.898L2857.5 620.518" stroke="hsl(34, 91%, 95%)" stroke-width="10.625" stroke-miterlimit="8" fill="none" fill-rule="evenodd"/><path d="M2747 611 2765 593 2783 611 2774 611 2774 679 2756 679 2756 611Z" stroke="hsl(34, 91%, 95%)" stroke-width="13.75" stroke-miterlimit="8" fill="#FF0000" fill-rule="evenodd"/></g></svg>