<svg width="161" height="161" xmlns="http://www.w3.org/2000/svg" xmlns:xlink="http://www.w3.org/1999/xlink" xml:space="preserve" overflow="hidden"><g transform="translate(-3943 -134)"><path d="M3960.66 152.326C3960.66 143.586 3966.43 136.5 3973.55 136.5L4088.61 136.5C4095.73 136.5 4101.5 143.586 4101.5 152.326L4101.5 276.674C4101.5 285.414 4095.73 292.5 4088.61 292.5L3973.55 292.5C3966.43 292.5 3960.66 285.414 3960.66 276.674 3960.76 271.298 3960.86 265.922 3960.97 260.546 3960.8 252.847 3945.64 255.711 3945.5 247.886 3945.36 240.06 3959.51 245.612 3959.68 232.587 3959.84 216.221 3958.28 165.703 3960.66 152.326Z" stroke="hsl(34, 65%, 97%)" stroke-width="4.58333" stroke-miterlimit="8" fill="#005426" fill-rule="evenodd"/><path d="M3983.5 178.961C3983.5 176.498 3985.5 174.5 3987.96 174.5L4074.04 174.5C4076.5 174.5 4078.5 176.498 4078.5 178.961L4078.5 184.039C4078.5 186.502 4076.5 188.5 4074.04 188.5L3987.96 188.5C3985.5 188.5 3983.5 186.502 3983.5 184.039Z" stroke="hsl(34, 65%, 97%)" stroke-width="4.58333" stroke-miterlimit="8" fill="#FFFFD1" fill-rule="evenodd"/><path d="M3983.5 211.961C3983.5 209.498 3985.5 207.5 3987.96 207.5L4074.04 207.5C4076.5 207.5 4078.5 209.498 4078.5 211.961L4078.5 217.039C4078.5 219.502 4076.5 221.5 4074.04 221.5L3987.96 221.5C3985.5 221.5 3983.5 219.502 3983.5 217.039Z" stroke="hsl(34, 65%, 97%)" stroke-width="4.58333" stroke-miterlimit="8" fill="#FFFFD1" fill-rule="evenodd"/><path d="M3983.5 243.961C3983.5 241.497 3985.5 239.5 3987.96 239.5L4074.04 239.5C4076.5 239.5 4078.5 241.497 4078.5 243.961L4078.5 249.039C4078.5 251.502 4076.5 253.5 4074.04 253.5L3987.96 253.5C3985.5 253.5 3983.5 251.502 3983.5 249.039Z" stroke="hsl(34, 65%, 97%)" stroke-width="4.58333" stroke-miterlimit="8" fill="#FFFFD1" fill-rule="evenodd"/></g></svg>