<svg width="245" height="205" xmlns="http://www.w3.org/2000/svg" xmlns:xlink="http://www.w3.org/1999/xlink" xml:space="preserve" overflow="hidden"><g transform="translate(-3096 -222)"><path d="M3291.5 253.5 3291.5 253.5 3291.5 253.5C3295.92 253.5 3299.5 256.892 3299.5 261.076 3299.5 273.383 3299.5 285.691 3299.5 297.998L3299.28 298.5 3283.5 282.42 3283.5 261.077 3283.5 261.076C3283.5 256.892 3287.08 253.5 3291.5 253.5Z" stroke="hsl(34, 91%, 95%)" stroke-width="20.625" stroke-miterlimit="8" fill="none" fill-rule="evenodd"/><path d="M169 71.5123 78.1591 163 0 66.9712 23.1274 95.3497 23.1274 0 144.023 0C144.023 31.7872 142.415 98.3532 142.415 98.3532" stroke="hsl(34, 91%, 95%)" stroke-width="20.625" stroke-miterlimit="8" fill="none" fill-rule="evenodd" transform="matrix(1 0 0 -1 3157.5 416.5)"/><path d="M3148.5 337.5C3153.03 333.578 3156.55 329.324 3170.95 311.825 3185.35 294.326 3234.86 234.53 3234.9 232.505 3234.91 231.807 3308.48 308.898 3308.48 308.898L3332.5 333.517" stroke="hsl(34, 91%, 95%)" stroke-width="20.625" stroke-miterlimit="8" fill="none" fill-rule="evenodd"/></g></svg>