<svg width="436" height="436" xmlns="http://www.w3.org/2000/svg" xmlns:xlink="http://www.w3.org/1999/xlink" xml:space="preserve" overflow="hidden"><g transform="translate(-3149 -1723)"><path d="M3407.25 1882.01 3407.25 1916.72 3247.42 1916.72 3247.42 1965.28 3407.25 1965.28 3407.25 1999.99 3486.58 1941ZM3367 1746C3474.7 1746 3562 1833.3 3562 1941 3562 2048.7 3474.7 2136 3367 2136 3259.3 2136 3172 2048.7 3172 1941 3172 1833.3 3259.3 1746 3367 1746Z" fill-rule="evenodd"/><path d="M3172 1941C3172 1833.3 3259.3 1746 3367 1746 3474.7 1746 3562 1833.3 3562 1941 3562 2048.7 3474.7 2136 3367 2136 3259.3 2136 3172 2048.7 3172 1941Z" stroke="#FFFFFF" stroke-width="45.8333" stroke-miterlimit="8" fill="none" fill-rule="evenodd"/></g></svg>